<svg width="25" height="25" viewBox="0 0 25 25" fill="none" xmlns="http://www.w3.org/2000/svg">
<path d="M9.53458 5.63365C10.854 3.26672 11.5137 2.08325 12.5 2.08325C13.4864 2.08325 14.1461 3.26671 15.4655 5.63364L15.8068 6.24599C16.1818 6.9186 16.3692 7.25491 16.6616 7.4768C16.9539 7.6987 17.3179 7.78106 18.046 7.9458L18.7089 8.09578C21.271 8.6755 22.5521 8.96536 22.8569 9.94547C23.1617 10.9255 22.2884 11.9469 20.5416 13.9894L20.0897 14.5178C19.5934 15.0983 19.3451 15.3885 19.2335 15.7475C19.1219 16.1066 19.1594 16.4938 19.2344 17.2683L19.3028 17.9733C19.5668 20.6985 19.6989 22.0611 18.901 22.6668C18.103 23.2725 16.9035 22.7202 14.5045 21.6158L13.8839 21.3299C13.2022 21.0161 12.8614 20.8591 12.5 20.8591C12.1387 20.8591 11.7979 21.0161 11.1162 21.3299L10.4956 21.6158C8.09658 22.7202 6.89711 23.2725 6.09916 22.6668C5.30121 22.0611 5.43325 20.6985 5.69733 17.9733L5.76565 17.2683C5.8407 16.4938 5.87822 16.1066 5.76656 15.7475C5.65492 15.3885 5.40674 15.0983 4.91038 14.5178L4.45848 13.9894C2.71176 11.9469 1.8384 10.9255 2.14319 9.94547C2.44798 8.96536 3.72906 8.6755 6.29123 8.09578L6.95409 7.9458C7.68218 7.78106 8.04622 7.6987 8.33852 7.4768C8.63082 7.25491 8.8183 6.91861 9.19324 6.24599L9.53458 5.63365Z" fill="#E6DE00"/>
</svg>
