<svg width="43" height="43" viewBox="0 0 43 43" fill="none" xmlns="http://www.w3.org/2000/svg">
<rect width="42.8667" height="42.8667" rx="5" fill="#BCF922"/>
<path d="M16.4333 11.6942H15.4336C14.0335 11.6942 13.3329 11.6942 12.7981 11.9667C12.3277 12.2064 11.9455 12.5886 11.7058 13.059C11.4333 13.5937 11.4333 14.2943 11.4333 15.6945V16.6942M16.4333 11.6942H26.4333M16.4333 11.6942V9.19421M26.4333 11.6942H27.4336C28.8337 11.6942 29.5328 11.6942 30.0676 11.9667C30.538 12.2064 30.9214 12.5886 31.1611 13.059C31.4333 13.5932 31.4333 14.293 31.4333 15.6904V16.6942M26.4333 11.6942V9.19421M11.4333 16.6942V27.6945C11.4333 29.0946 11.4333 29.7943 11.7058 30.3291C11.9455 30.7995 12.3277 31.1823 12.7981 31.422C13.3324 31.6942 14.0321 31.6942 15.4295 31.6942H27.4372C28.8346 31.6942 29.5333 31.6942 30.0676 31.422C30.538 31.1823 30.9214 30.7995 31.1611 30.3291C31.4333 29.7948 31.4333 29.0961 31.4333 27.6987V16.6942M11.4333 16.6942H31.4333M26.4333 26.6942H26.4358L26.4358 26.6967L26.4333 26.6967V26.6942ZM21.4333 26.6942H21.4358L21.4358 26.6967L21.4333 26.6967V26.6942ZM16.4333 26.6942H16.4358L16.4358 26.6967L16.4333 26.6967V26.6942ZM26.4358 21.6942V21.6967L26.4333 21.6967V21.6942H26.4358ZM21.4333 21.6942H21.4358L21.4358 21.6967L21.4333 21.6967V21.6942ZM16.4333 21.6942H16.4358L16.4358 21.6967L16.4333 21.6967V21.6942Z" stroke="white" stroke-width="2" stroke-linecap="round" stroke-linejoin="round"/>
</svg>
