<svg width="43" height="43" viewBox="0 0 43 43" fill="none" xmlns="http://www.w3.org/2000/svg">
<rect width="42.8667" height="42.8667" rx="5" fill="#0099FF"/>
<path d="M22.6833 31.6931C22.5647 31.6942 22.4316 31.6942 22.2796 31.6942H15.4295C14.0321 31.6942 13.3324 31.6942 12.7981 31.422C12.3277 31.1823 11.9455 30.7995 11.7058 30.3291C11.4333 29.7943 11.4333 29.0946 11.4333 27.6945V15.6945C11.4333 14.2943 11.4333 13.5937 11.7058 13.059C11.9455 12.5886 12.3277 12.2064 12.7981 11.9667C13.3329 11.6942 14.0335 11.6942 15.4336 11.6942H27.4336C28.8337 11.6942 29.5328 11.6942 30.0676 11.9667C30.538 12.2064 30.9214 12.5886 31.1611 13.059C31.4333 13.5932 31.4333 14.293 31.4333 15.6904V22.5376C31.4333 22.6909 31.4333 22.8249 31.4322 22.9442M22.6833 31.6931C23.0404 31.6899 23.2663 31.677 23.4819 31.6252C23.737 31.564 23.9807 31.4626 24.2043 31.3255C24.4566 31.1709 24.6728 30.9553 25.1052 30.5229L30.2621 25.3661C30.6945 24.9337 30.9094 24.7175 31.064 24.4652C31.2011 24.2415 31.3025 23.9972 31.3638 23.7422C31.4155 23.5266 31.4288 23.301 31.4322 22.9442M22.6833 31.6931V24.9443C22.6833 24.2443 22.6833 23.894 22.8196 23.6266C22.9394 23.3914 23.1305 23.2003 23.3657 23.0805C23.6331 22.9442 23.9828 22.9442 24.6829 22.9442H31.4322" stroke="white" stroke-width="2" stroke-linecap="round" stroke-linejoin="round"/>
</svg>
