<svg width="43" height="43" viewBox="0 0 43 43" fill="none" xmlns="http://www.w3.org/2000/svg">
<rect width="42.8106" height="42.8106" rx="5" fill="#3EA796"/>
<path fill-rule="evenodd" clip-rule="evenodd" d="M17.3406 31.2662C13.4043 28.0564 8.02698 22.7539 8.02698 17.7404C8.02698 9.83256 15.3853 6.23799 21.4053 12.7079C27.4253 6.23799 34.7836 9.83231 34.7836 17.7403C34.7836 22.754 29.4063 28.0564 25.47 31.2662C23.688 32.7194 22.797 33.446 21.4053 33.446C20.0135 33.446 19.1225 32.7194 17.3406 31.2662ZM18.8543 19.7282C18.974 19.5571 19.0736 19.415 19.1621 19.2934C19.2371 19.4239 19.3207 19.5759 19.4213 19.7589L21.7094 23.9189C21.9315 24.323 22.1494 24.7194 22.3681 25.007C22.6022 25.3147 23.0138 25.7366 23.6734 25.7489C24.333 25.7613 24.7602 25.3553 25.0057 25.0565C25.2351 24.7773 25.4676 24.3895 25.7048 23.994L25.7789 23.8704C26.0743 23.3781 26.2603 23.0703 26.4248 22.8479C26.5765 22.6431 26.6642 22.5762 26.7296 22.5393C26.7949 22.5022 26.8974 22.4616 27.151 22.4368C27.4263 22.41 27.7859 22.409 28.3601 22.409H29.4323C29.9864 22.409 30.4357 21.9597 30.4357 21.4056C30.4357 20.8515 29.9864 20.4022 29.4323 20.4022H28.3168C27.7989 20.4022 27.3408 20.4022 26.9569 20.4396C26.5406 20.48 26.1355 20.5695 25.7408 20.793C25.3461 21.0164 25.0609 21.3177 24.8121 21.6539C24.5825 21.9639 24.3469 22.3567 24.0804 22.8008L24.0169 22.9068C23.9009 23.1002 23.804 23.2613 23.7176 23.3996C23.6363 23.2582 23.5457 23.0935 23.4369 22.8959L21.15 18.7378C20.9439 18.3627 20.7384 17.989 20.5301 17.715C20.3024 17.4157 19.9121 17.02 19.2867 16.9862C18.6612 16.9524 18.2306 17.3039 17.9721 17.5769C17.7354 17.8269 17.4909 18.1763 17.2456 18.527L16.8317 19.1183C16.5278 19.5524 16.3373 19.823 16.1723 20.018C16.0205 20.1975 15.9361 20.2564 15.8739 20.2888C15.8116 20.3213 15.715 20.3566 15.4808 20.378C15.2264 20.4013 14.8956 20.4022 14.3657 20.4022H13.3783C12.8242 20.4022 12.3749 20.8515 12.3749 21.4056C12.3749 21.9597 12.8242 22.409 13.3783 22.409H14.4059C14.8835 22.409 15.3068 22.409 15.6633 22.3765C16.05 22.3411 16.4273 22.2632 16.8006 22.0688C17.1739 21.8744 17.4542 21.6102 17.7048 21.3136C17.936 21.0401 18.1787 20.6933 18.4526 20.302L18.8543 19.7282Z" fill="white"/>
</svg>
